<svg width="295" height="168" viewBox="0 0 295 168" fill="none" xmlns="http://www.w3.org/2000/svg">
<path d="M30.8809 61.5824C30.8809 60.3636 31.3755 59.4105 32.3752 58.7282C33.3697 58.0355 34.6273 57.473 36.1427 57.0407C37.6686 56.598 39.2367 56.1657 40.8363 55.749C41.4782 55.5719 42.2885 55.348 43.2567 55.0824C44.2354 54.8219 45.2352 54.5563 46.2454 54.2907C47.2557 54.0303 48.1502 53.8115 48.9395 53.6449C49.7393 53.4678 50.3181 53.374 50.6864 53.374C51.7072 53.374 52.7175 53.7907 53.7173 54.624C54.7118 55.4469 55.4326 56.9782 55.8851 59.2282C57.2427 58.2438 58.7476 57.3063 60.3893 56.4157C62.0415 55.5146 63.7884 54.7855 65.6301 54.2282C67.4822 53.6605 69.3607 53.374 71.2708 53.374C73.6123 53.374 75.8012 53.9313 77.8376 55.0407C79.8844 56.1396 81.5261 57.7282 82.7626 59.8115C84.0097 61.8844 84.6359 64.3688 84.6359 67.2699C84.6359 70.6188 84.136 73.2594 83.1415 75.1865C82.1417 77.1188 80.721 78.4886 78.8689 79.2907C77.0272 80.098 74.8541 80.499 72.3442 80.499C70.7446 80.499 69.487 80.249 68.5767 79.749C67.6769 79.2386 67.0087 78.5824 66.5772 77.7907C66.1563 76.999 65.8406 76.1449 65.6301 75.2282C65.4196 74.3115 65.2091 73.4678 64.9987 72.6865C64.7882 71.8949 64.4514 71.2438 63.9884 70.7282C63.5253 70.2178 62.815 69.9574 61.8626 69.9574C60.7523 69.9574 59.8526 70.2803 59.1685 70.9157C58.4792 71.5407 57.9478 72.374 57.5689 73.4157C57.2006 74.4574 56.927 75.598 56.7481 76.8324C56.5639 78.0563 56.4534 79.2646 56.4113 80.4574C56.3798 81.6396 56.3692 82.7074 56.3692 83.6657C56.3692 86.0146 56.606 88.0771 57.0848 89.8532C57.5584 91.6188 58.1267 93.1969 58.7897 94.5824C59.4474 95.973 60.0157 97.2803 60.4945 98.499C60.9681 99.7074 61.2101 100.926 61.2101 102.145C61.2101 103.41 60.9418 104.369 60.4103 105.02C59.8736 105.676 59.2106 106.134 58.4108 106.395C57.6216 106.645 56.8323 106.785 56.0325 106.812C55.2327 106.827 54.5434 106.832 53.9698 106.832H38.5421C37.9791 106.832 37.3003 106.827 36.5005 106.812C35.7007 106.785 34.9009 106.645 34.1011 106.395C33.3013 106.134 32.6331 105.676 32.1016 105.02C31.5807 104.369 31.3229 103.41 31.3229 102.145C31.3229 100.926 31.5596 99.7074 32.0385 98.499C32.512 97.2803 33.0698 95.973 33.7012 94.5824C34.3432 93.1969 34.9062 91.6188 35.385 89.8532C35.8586 88.0771 36.1006 86.0146 36.1006 83.6657C36.1006 80.8896 35.9164 78.5094 35.5534 76.5199C35.2008 74.5355 34.7641 72.8324 34.2484 71.4157C33.7433 69.999 33.2276 68.7594 32.712 67.6865C32.2068 66.6032 31.7701 65.5928 31.407 64.6449C31.0545 63.7021 30.8809 62.6813 30.8809 61.5824Z" fill="#FFF5E6"/>
<path d="M86.4727 80.499C86.4727 77.1657 87.0462 73.8896 88.1985 70.6657C89.3614 67.4313 91.1241 64.5146 93.4814 61.9157C95.8387 59.3219 98.8117 57.249 102.406 55.7074C106.01 54.1553 110.277 53.374 115.202 53.374C117.938 53.374 120.559 53.723 123.074 54.4157C125.6 55.098 127.841 56.1344 129.809 57.5199C131.788 58.8949 133.35 60.624 134.503 62.7074C135.65 64.7803 136.229 67.1969 136.229 69.9574C136.229 73.0146 135.755 75.6657 134.818 77.9157C133.877 80.1657 132.614 82.0615 131.03 83.6032C129.457 85.1449 127.71 86.4157 125.789 87.4157C123.879 88.4157 121.948 89.2178 120.001 89.8115C118.149 90.3844 116.518 90.6553 115.118 90.624C113.729 90.5824 112.624 90.5615 111.814 90.5615C111.351 90.5615 110.998 90.6032 110.761 90.6865C110.535 90.7699 110.425 90.973 110.425 91.2907C110.425 91.8636 110.73 92.3219 111.351 92.6657C111.966 93.0146 112.708 93.2699 113.582 93.4365C114.45 93.5928 115.244 93.6657 115.96 93.6657C117.865 93.6657 119.475 93.4313 120.78 92.9574C122.095 92.4886 123.253 91.9521 124.253 91.3532C125.247 90.7594 126.2 90.223 127.115 89.749C128.041 89.2803 129.057 89.0407 130.167 89.0407C131.372 89.0407 132.409 89.3324 133.282 89.9157C134.15 90.4886 134.861 91.223 135.408 92.124C135.955 93.0146 136.36 93.9313 136.629 94.874C136.892 95.8219 137.028 96.6813 137.028 97.4574C137.028 99.0407 136.255 100.619 134.713 102.187C133.166 103.744 130.788 105.041 127.578 106.082C124.363 107.108 120.238 107.624 115.202 107.624C110.53 107.624 106.405 106.858 102.826 105.332C99.2589 103.806 96.2649 101.744 93.8392 99.1449C91.4083 96.5511 89.5719 93.6396 88.3248 90.4157C87.0883 87.1813 86.4727 83.874 86.4727 80.499ZM107.015 74.9157C106.131 77.1657 105.805 78.9886 106.047 80.374C106.299 81.7646 107.083 82.4574 108.404 82.4574C109.751 82.4574 111.103 81.7646 112.466 80.374C113.824 78.9886 114.955 77.1657 115.855 74.9157C116.765 72.6396 117.086 70.8063 116.823 69.4157C116.555 68.0303 115.75 67.3324 114.403 67.3324C113.098 67.3324 111.772 68.0303 110.425 69.4157C109.078 70.8063 107.941 72.6396 107.015 74.9157Z" fill="#FFF5E6"/>
<path d="M151.067 84.8118C149.51 81.5931 148.047 78.8535 146.69 76.6035C145.343 74.3535 144.127 72.4264 143.048 70.8118C141.964 69.2025 141.033 67.7702 140.249 66.5202C139.476 65.2702 138.871 64.041 138.439 62.8327C138.018 61.6243 137.808 60.2806 137.808 58.791C137.808 57.39 138.276 56.2702 139.218 55.4368C140.154 54.5931 141.333 54.166 142.754 54.166H159.739C160.733 54.166 161.76 54.2858 162.812 54.5202C163.875 54.7441 164.775 55.1973 165.506 55.8743C166.232 56.5566 166.6 57.5827 166.6 58.9577C166.6 60.0827 166.369 61.2441 165.906 62.4368C165.443 63.6348 165.211 64.9681 165.211 66.4368C165.211 68.4368 165.616 70.5566 166.432 72.791C167.242 75.015 168.1 77.4264 169 80.0202C169.884 77.4264 170.731 75.015 171.547 72.791C172.357 70.5566 172.767 68.4368 172.767 66.4368C172.767 64.9681 172.536 63.6348 172.073 62.4368C171.61 61.2441 171.378 60.0827 171.378 58.9577C171.378 57.5827 171.741 56.5566 172.473 55.8743C173.199 55.1973 174.099 54.7441 175.167 54.5202C176.23 54.2858 177.261 54.166 178.261 54.166H190.594C192.01 54.166 193.189 54.5931 194.13 55.4368C195.067 56.2702 195.541 57.39 195.541 58.791C195.541 59.8223 195.362 60.8066 195.014 61.7493C194.662 62.6973 194.12 63.765 193.394 64.9577C192.662 66.1556 191.763 67.6139 190.7 69.3327C189.632 71.0566 188.395 73.166 186.995 75.666C185.606 78.1556 184.038 81.2025 182.302 84.8118C181.444 86.5775 180.623 88.4889 179.839 90.541C179.066 92.5827 178.229 94.6139 177.335 96.6244C176.451 98.6244 175.467 100.458 174.388 102.124C173.304 103.791 172.062 105.124 170.663 106.124C169.258 107.124 167.616 107.624 165.737 107.624C164.012 107.624 162.522 107.124 161.275 106.124C160.039 105.124 158.965 103.791 158.055 102.124C157.155 100.458 156.335 98.6244 155.593 96.6244C154.845 94.6139 154.119 92.5827 153.404 90.541C152.688 88.4889 151.909 86.5775 151.067 84.8118Z" fill="#FFF5E6"/>
<path d="M222.605 107.624C217.286 107.624 212.745 106.494 208.988 104.228C205.226 101.968 202.347 98.8011 200.358 94.7282C198.38 90.6449 197.391 85.8844 197.391 80.4365C197.391 75.0355 198.38 70.3063 200.358 66.249C202.347 62.1969 205.226 59.0355 208.988 56.7699C212.745 54.5094 217.286 53.374 222.605 53.374C227.936 53.374 232.482 54.5094 236.244 56.7699C240.001 59.0355 242.874 62.1969 244.852 66.249C246.841 70.3063 247.841 75.0355 247.841 80.4365C247.841 85.8844 246.841 90.6449 244.852 94.7282C242.874 98.8011 240.001 101.968 236.244 104.228C232.482 106.494 227.936 107.624 222.605 107.624ZM217.87 80.5615C217.87 84.4938 218.301 87.6761 219.175 90.1032C220.043 92.5199 221.185 93.7282 222.605 93.7282C224.037 93.7282 225.178 92.5199 226.036 90.1032C226.904 87.6761 227.341 84.4938 227.341 80.5615C227.341 76.5928 226.904 73.3949 226.036 70.9782C225.178 68.5511 224.037 67.3324 222.605 67.3324C221.185 67.3324 220.043 68.5511 219.175 70.9782C218.301 73.3949 217.87 76.5928 217.87 80.5615Z" fill="#FFF5E6"/>
<mask id="mask0_345_227" style="mask-type:luminance" maskUnits="userSpaceOnUse" x="211" y="39" width="28" height="27">
<path d="M211.625 39.5566H238.297V65.9577H211.625V39.5566Z" fill="white"/>
</mask>
<g mask="url(#mask0_345_227)">
<mask id="mask1_345_227" style="mask-type:luminance" maskUnits="userSpaceOnUse" x="211" y="39" width="28" height="27">
<path d="M224.959 39.5566C217.597 39.5566 211.625 45.4681 211.625 52.7546C211.625 60.0462 217.597 65.9577 224.959 65.9577C232.325 65.9577 238.297 60.0462 238.297 52.7546C238.297 45.4681 232.325 39.5566 224.959 39.5566Z" fill="white"/>
</mask>
<g mask="url(#mask1_345_227)">
<path d="M211.625 39.5566H238.297V65.9577H211.625V39.5566Z" fill="#F27141"/>
</g>
</g>
<mask id="mask2_345_227" style="mask-type:luminance" maskUnits="userSpaceOnUse" x="231" y="52" width="21" height="21">
<path d="M231.743 52.4424H251.949V72.4424H231.743V52.4424Z" fill="white"/>
</mask>
<g mask="url(#mask2_345_227)">
<mask id="mask3_345_227" style="mask-type:luminance" maskUnits="userSpaceOnUse" x="229" y="50" width="27" height="26">
<path d="M229.063 60.234L244.781 50.0986L255.015 65.6559L239.303 75.7861L229.063 60.234Z" fill="white"/>
</mask>
<g mask="url(#mask3_345_227)">
<mask id="mask4_345_227" style="mask-type:luminance" maskUnits="userSpaceOnUse" x="232" y="53" width="20" height="20">
<path d="M236.92 55.1662C232.584 57.9631 231.358 63.7131 234.184 68.0099C237.009 72.3068 242.818 73.5204 247.159 70.7183C251.5 67.9214 252.726 62.1714 249.895 57.8745C247.07 53.5829 241.261 52.3693 236.92 55.1662Z" fill="white"/>
</mask>
<g mask="url(#mask4_345_227)">
<path d="M229.063 60.234L244.781 50.0986L255.015 65.6559L239.303 75.7861L229.063 60.234Z" fill="#F27141"/>
</g>
</g>
</g>
<mask id="mask5_345_227" style="mask-type:luminance" maskUnits="userSpaceOnUse" x="102" y="26" width="26" height="26">
<path d="M102.444 26.9473H127.701V51.9473H102.444V26.9473Z" fill="white"/>
</mask>
<g mask="url(#mask5_345_227)">
<path d="M127.212 42.2913C127.254 42.0882 127.296 41.8747 127.328 41.6611C127.243 41.6663 127.164 41.6715 127.08 41.6715C125.291 41.6715 123.834 40.2288 123.834 38.4528C123.834 38.3278 123.839 38.1976 123.86 38.0778C121.808 37.9007 120.203 36.1976 120.203 34.1195C120.203 33.5101 120.34 32.932 120.592 32.4215C119.461 31.9215 118.672 30.7913 118.672 29.4893C118.672 28.9736 118.788 28.4893 119.014 28.0622C118.582 27.9163 118.14 27.7913 117.693 27.6924C117.698 27.6715 117.698 27.6507 117.698 27.6299C117.704 27.4163 117.562 27.2288 117.356 27.1872C116.599 27.0361 115.815 26.958 114.957 26.958C112.836 26.958 110.726 27.4788 108.864 28.4632C108.674 28.5674 108.585 28.7913 108.659 28.9893C108.669 29.0101 108.674 29.0361 108.685 29.057C104.954 31.1924 102.444 35.1872 102.444 39.7705C102.444 46.609 108.048 52.1559 114.957 52.1559C121.003 52.1559 126.033 47.9215 127.212 42.2913Z" fill="#FFF5E6"/>
</g>
<mask id="mask6_345_227" style="mask-type:luminance" maskUnits="userSpaceOnUse" x="255" y="105" width="14" height="16">
<path d="M255.016 105.775H268.112V120.442H255.016V105.775Z" fill="white"/>
</mask>
<g mask="url(#mask6_345_227)">
<path d="M255.016 116.067C255.016 116.067 256.347 122.488 266.102 117.603C266.102 117.603 270.343 114.514 264.64 110.426C264.64 110.426 257.047 99.7228 255.016 116.067Z" fill="#FFF5E6"/>
</g>
<path d="M273.394 113.015C273.394 113.015 274.041 116.156 278.824 113.765C278.824 113.765 280.907 112.25 278.108 110.245C278.108 110.245 274.388 105.005 273.394 113.015Z" fill="#FFF5E6"/>
<path d="M270.812 123.88C270.812 123.88 259.894 127.39 265.145 131.198C270.381 135 273.017 136.343 273.017 136.343C273.017 136.343 281.757 124.302 276.279 124.093C270.812 123.88 270.812 123.88 270.812 123.88Z" fill="#FFF5E6"/>
<path d="M67.6807 148.026V138.006C67.6807 136.756 68.0069 135.834 68.6699 135.235C69.3434 134.641 70.1748 134.318 71.1745 134.276C71.2587 134.276 71.3955 134.287 71.5955 134.297C71.7902 134.297 71.9954 134.328 72.2058 134.381C72.4268 134.438 72.6163 134.526 72.7741 134.651C72.9267 134.776 73.0057 134.953 73.0057 135.172C73.0057 135.396 72.9267 135.578 72.7741 135.714C72.6163 135.839 72.4426 135.901 72.2479 135.901C72.0638 135.901 71.8796 135.881 71.7007 135.839C71.5323 135.797 71.3061 135.776 71.0272 135.776C70.4379 135.776 69.9854 135.985 69.6802 136.401C69.3855 136.808 69.2382 137.292 69.2382 137.86V139.089H71.3219C71.5165 139.089 71.6849 139.162 71.827 139.297C71.9638 139.438 72.0375 139.61 72.0375 139.818C72.0375 140.026 71.9638 140.203 71.827 140.339C71.6849 140.479 71.5165 140.547 71.3219 140.547H69.2382V148.026C69.2382 148.235 69.1645 148.417 69.0277 148.568C68.9014 148.703 68.712 148.776 68.4594 148.776C68.2068 148.776 68.0069 148.703 67.8701 148.568C67.7438 148.417 67.6807 148.235 67.6807 148.026Z" fill="#FFF5E6"/>
<path d="M83.4437 148.839C82.6281 148.839 81.9388 148.683 81.3811 148.381C80.8338 148.063 80.4129 147.641 80.1182 147.11C79.8341 146.568 79.6973 145.964 79.6973 145.298V141.985C79.6973 141.318 79.8341 140.725 80.1182 140.193C80.4129 139.652 80.8338 139.23 81.3811 138.923C81.9388 138.605 82.6281 138.443 83.4437 138.443C84.254 138.443 84.9381 138.605 85.4853 138.923C86.043 139.23 86.464 139.652 86.7481 140.193C87.0428 140.725 87.1901 141.318 87.1901 141.985V145.298C87.1901 145.964 87.0428 146.568 86.7481 147.11C86.464 147.641 86.043 148.063 85.4853 148.381C84.9381 148.683 84.254 148.839 83.4437 148.839ZM83.4437 147.402C84.1698 147.402 84.7171 147.214 85.0854 146.839C85.4485 146.464 85.6326 145.954 85.6326 145.298V141.964C85.6326 141.313 85.4485 140.808 85.0854 140.443C84.7171 140.068 84.1698 139.881 83.4437 139.881C82.7281 139.881 82.1809 140.068 81.802 140.443C81.4337 140.808 81.2548 141.313 81.2548 141.964V145.298C81.2548 145.954 81.4337 146.464 81.802 146.839C82.1809 147.214 82.7281 147.402 83.4437 147.402Z" fill="#FFF5E6"/>
<path d="M98.7513 148.839C97.9357 148.839 97.2464 148.683 96.6887 148.381C96.1414 148.063 95.7205 147.641 95.4258 147.11C95.1417 146.568 95.0049 145.964 95.0049 145.298V141.985C95.0049 141.318 95.1417 140.725 95.4258 140.193C95.7205 139.652 96.1414 139.23 96.6887 138.923C97.2464 138.605 97.9357 138.443 98.7513 138.443C99.5616 138.443 100.246 138.605 100.793 138.923C101.351 139.23 101.772 139.652 102.056 140.193C102.35 140.725 102.498 141.318 102.498 141.985V145.298C102.498 145.964 102.35 146.568 102.056 147.11C101.772 147.641 101.351 148.063 100.793 148.381C100.246 148.683 99.5616 148.839 98.7513 148.839ZM98.7513 147.402C99.4775 147.402 100.025 147.214 100.393 146.839C100.756 146.464 100.94 145.954 100.94 145.298V141.964C100.94 141.313 100.756 140.808 100.393 140.443C100.025 140.068 99.4775 139.881 98.7513 139.881C98.0357 139.881 97.4885 140.068 97.1096 140.443C96.7413 140.808 96.5624 141.313 96.5624 141.964V145.298C96.5624 145.954 96.7413 146.464 97.1096 146.839C97.4885 147.214 98.0357 147.402 98.7513 147.402Z" fill="#FFF5E6"/>
<path d="M113.664 138.547C114.38 138.547 115.121 138.672 115.895 138.922V135.026C115.895 134.818 115.958 134.646 116.084 134.506C116.221 134.354 116.421 134.276 116.674 134.276C116.926 134.276 117.116 134.354 117.242 134.506C117.379 134.646 117.452 134.818 117.452 135.026V146.401C117.452 146.683 117.484 146.917 117.558 147.11C117.642 147.292 117.779 147.459 117.979 147.61C118.021 147.651 118.052 147.709 118.084 147.776C118.11 147.834 118.126 147.912 118.126 148.006C118.126 148.214 118.047 148.381 117.894 148.506C117.752 148.631 117.589 148.693 117.41 148.693C117.184 148.693 116.979 148.641 116.8 148.526C116.616 148.401 116.468 148.245 116.358 148.047C115.905 148.271 115.442 148.459 114.969 148.61C114.506 148.761 114.011 148.839 113.496 148.839C112.443 148.839 111.649 148.495 111.117 147.797C110.58 147.104 110.317 146.203 110.317 145.089V142.547C110.317 141.756 110.412 141.063 110.612 140.464C110.823 139.87 111.17 139.401 111.664 139.068C112.154 138.724 112.822 138.547 113.664 138.547ZM115.895 146.401V140.318C115.558 140.167 115.19 140.063 114.8 140.006C114.422 139.938 114.111 139.901 113.874 139.901C113.127 139.901 112.612 140.12 112.317 140.547C112.022 140.964 111.875 141.631 111.875 142.547V145.089C111.875 146.662 112.527 147.443 113.832 147.443C114.153 147.443 114.495 147.396 114.864 147.297C115.242 147.188 115.6 147.042 115.937 146.86C115.921 146.792 115.905 146.714 115.895 146.631C115.895 146.547 115.895 146.474 115.895 146.401Z" fill="#FFF5E6"/>
<path d="M140.342 141.34V148.048C140.342 148.272 140.263 148.459 140.111 148.61C139.969 148.761 139.785 148.84 139.564 148.84C139.337 148.84 139.148 148.761 138.995 148.61C138.837 148.459 138.764 148.272 138.764 148.048V141.34C138.764 140.746 138.659 140.287 138.448 139.965C138.406 139.897 138.369 139.834 138.343 139.777C138.311 139.725 138.301 139.652 138.301 139.569C138.301 139.35 138.369 139.173 138.511 139.048C138.664 138.923 138.837 138.86 139.037 138.86C139.19 138.86 139.337 138.918 139.479 139.027C139.616 139.126 139.737 139.251 139.837 139.402C140.258 139.142 140.726 138.933 141.247 138.777C141.763 138.626 142.205 138.548 142.573 138.548C142.979 138.548 143.252 138.626 143.394 138.777C143.547 138.918 143.626 139.09 143.626 139.298C143.626 139.548 143.547 139.751 143.394 139.902C143.236 140.043 143.057 140.105 142.847 140.09C142.426 140.079 142.016 140.105 141.626 140.173C141.247 140.23 140.805 140.444 140.3 140.819C140.311 140.902 140.321 140.996 140.321 141.09C140.332 141.188 140.342 141.272 140.342 141.34Z" fill="#FFF5E6"/>
<path d="M154.644 147.464C155.075 147.464 155.444 147.417 155.738 147.318C156.044 147.209 156.375 147.068 156.728 146.901C156.754 146.891 156.791 146.875 156.833 146.86C156.885 146.849 156.949 146.839 157.022 146.839C157.217 146.839 157.38 146.912 157.506 147.047C157.643 147.188 157.717 147.354 157.717 147.547C157.717 147.787 157.596 147.985 157.359 148.151C157.133 148.318 156.843 148.453 156.496 148.547C156.144 148.646 155.786 148.714 155.423 148.756C155.054 148.808 154.739 148.839 154.476 148.839C153.339 148.839 152.455 148.521 151.824 147.881C151.203 147.245 150.897 146.459 150.897 145.526V141.818C150.897 140.875 151.203 140.084 151.824 139.443C152.455 138.792 153.365 138.464 154.56 138.464C155.665 138.464 156.496 138.766 157.043 139.36C157.601 139.943 157.885 140.724 157.885 141.693C157.885 142.61 157.617 143.334 157.085 143.86C156.549 144.391 155.686 144.651 154.497 144.651C154.202 144.651 153.87 144.641 153.507 144.61C153.155 144.568 152.802 144.521 152.455 144.464V145.631C152.455 146.188 152.634 146.631 153.002 146.964C153.381 147.297 153.928 147.464 154.644 147.464ZM156.349 141.693C156.349 141.058 156.186 140.599 155.865 140.318C155.554 140.026 155.107 139.881 154.518 139.881C153.87 139.881 153.365 140.047 153.002 140.381C152.634 140.703 152.455 141.141 152.455 141.693V143.193C152.834 143.25 153.223 143.292 153.634 143.318C154.055 143.334 154.36 143.339 154.56 143.339C155.065 143.339 155.444 143.266 155.696 143.11C155.959 142.943 156.138 142.735 156.222 142.485C156.307 142.235 156.349 141.974 156.349 141.693Z" fill="#FFF5E6"/>
<path d="M172.824 139.506L170.088 147.901C169.988 148.235 169.861 148.479 169.709 148.631C169.551 148.766 169.34 148.839 169.077 148.839C168.809 148.839 168.599 148.766 168.446 148.631C168.288 148.479 168.157 148.245 168.046 147.922L165.268 139.443C165.184 139.209 165.231 139 165.415 138.818C165.594 138.625 165.799 138.526 166.025 138.526C166.373 138.526 166.604 138.703 166.72 139.047L169.077 146.526L171.372 139.047C171.424 138.896 171.519 138.771 171.645 138.672C171.782 138.578 171.929 138.526 172.087 138.526C172.324 138.526 172.519 138.625 172.676 138.818C172.845 139.016 172.892 139.245 172.824 139.506Z" fill="#FFF5E6"/>
<path d="M182.758 135.401C182.758 135.667 182.658 135.896 182.463 136.089C182.279 136.271 182.053 136.36 181.79 136.36C181.522 136.36 181.295 136.271 181.116 136.089C180.932 135.896 180.843 135.667 180.843 135.401C180.843 135.141 180.932 134.917 181.116 134.735C181.295 134.558 181.522 134.464 181.79 134.464C182.053 134.464 182.279 134.558 182.463 134.735C182.658 134.917 182.758 135.141 182.758 135.401ZM182.569 148.047C182.569 148.271 182.49 148.459 182.337 148.61C182.195 148.761 182.011 148.839 181.79 148.839C181.579 148.839 181.395 148.761 181.243 148.61C181.085 148.459 181.011 148.271 181.011 148.047V139.297C181.011 139.089 181.085 138.912 181.243 138.756C181.395 138.604 181.579 138.526 181.79 138.526C182.011 138.526 182.195 138.604 182.337 138.756C182.49 138.912 182.569 139.089 182.569 139.297V148.047Z" fill="#FFF5E6"/>
<path d="M194.925 147.464C195.357 147.464 195.725 147.417 196.02 147.318C196.325 147.209 196.656 147.068 197.009 146.901C197.035 146.891 197.072 146.875 197.114 146.86C197.167 146.849 197.23 146.839 197.303 146.839C197.498 146.839 197.661 146.912 197.788 147.047C197.924 147.188 197.998 147.354 197.998 147.547C197.998 147.787 197.877 147.985 197.64 148.151C197.414 148.318 197.125 148.453 196.777 148.547C196.425 148.646 196.067 148.714 195.704 148.756C195.336 148.808 195.02 148.839 194.757 148.839C193.62 148.839 192.736 148.521 192.105 147.881C191.484 147.245 191.179 146.459 191.179 145.526V141.818C191.179 140.875 191.484 140.084 192.105 139.443C192.736 138.792 193.647 138.464 194.841 138.464C195.946 138.464 196.777 138.766 197.325 139.36C197.882 139.943 198.166 140.724 198.166 141.693C198.166 142.61 197.898 143.334 197.367 143.86C196.83 144.391 195.967 144.651 194.778 144.651C194.483 144.651 194.152 144.641 193.789 144.61C193.436 144.568 193.083 144.521 192.736 144.464V145.631C192.736 146.188 192.915 146.631 193.283 146.964C193.662 147.297 194.21 147.464 194.925 147.464ZM196.63 141.693C196.63 141.058 196.467 140.599 196.146 140.318C195.835 140.026 195.388 139.881 194.799 139.881C194.152 139.881 193.647 140.047 193.283 140.381C192.915 140.703 192.736 141.141 192.736 141.693V143.193C193.115 143.25 193.504 143.292 193.915 143.318C194.336 143.334 194.641 143.339 194.841 143.339C195.346 143.339 195.725 143.266 195.978 143.11C196.241 142.943 196.42 142.735 196.504 142.485C196.588 142.235 196.63 141.974 196.63 141.693Z" fill="#FFF5E6"/>
<path d="M217.61 139.443L215.316 147.943C215.216 148.235 215.095 148.459 214.958 148.61C214.816 148.761 214.6 148.839 214.306 148.839C214.095 148.839 213.906 148.776 213.737 148.651C213.569 148.526 213.448 148.36 213.38 148.151L211.591 141.193L209.801 148.151C209.659 148.61 209.344 148.839 208.854 148.839C208.586 148.839 208.37 148.761 208.202 148.61C208.044 148.443 207.928 148.224 207.844 147.943L205.529 139.381C205.513 139.354 205.508 139.313 205.508 139.256C205.508 139.078 205.581 138.912 205.739 138.756C205.892 138.604 206.076 138.526 206.287 138.526C206.439 138.526 206.581 138.578 206.708 138.672C206.844 138.756 206.944 138.896 207.002 139.089L208.896 146.381C209.202 145.188 209.507 144 209.801 142.818C210.107 141.625 210.412 140.422 210.707 139.214C210.749 139.021 210.843 138.86 211.001 138.735C211.154 138.599 211.359 138.526 211.612 138.526C211.833 138.526 212.017 138.599 212.159 138.735C212.311 138.86 212.417 139.021 212.474 139.214C212.753 140.422 213.048 141.625 213.358 142.818C213.664 144 213.974 145.188 214.285 146.381L216.158 139.089C216.2 138.922 216.284 138.792 216.41 138.693C216.547 138.584 216.705 138.526 216.873 138.526C217.068 138.526 217.242 138.604 217.4 138.756C217.552 138.896 217.631 139.078 217.631 139.297C217.631 139.313 217.621 139.334 217.61 139.36C217.61 139.391 217.61 139.417 217.61 139.443Z" fill="#FFF5E6"/>
</svg>
